<svg width="17" height="13" fill="none" xmlns="http://www.w3.org/2000/svg"><path d="M14.719 12.629c.34 0 .635-.113.886-.335l-4.29-4.29-.297.214c-.321.237-.582.421-.782.553-.2.133-.466.268-.798.406a2.433 2.433 0 01-.93.207h-.017c-.287 0-.597-.069-.93-.207a4.794 4.794 0 01-.798-.406c-.2-.132-.46-.316-.781-.553l-.296-.215-4.291 4.291c.25.222.546.335.886.335H14.72zM1.783 5.303a4.48 4.48 0 01-.854-.735v6.527L4.71 7.314a292.449 292.449 0 00-2.927-2.01zm13.443.001a256.32 256.32 0 00-2.935 2.012l3.78 3.78V4.567c-.242.27-.524.516-.845.736z" fill="#D9D9D9"/><path d="M14.72.732H2.282c-.433 0-.767.146-1 .44C1.046 1.463.93 1.83.93 2.27c0 .354.155.739.464 1.153.31.414.64.74.989.976.191.135.769.537 1.732 1.204A561.665 561.665 0 016.33 7.145l.126.09.233.168c.183.132.335.24.456.32.121.083.268.174.44.275.171.102.333.178.486.229.152.05.292.076.422.076h.017c.13 0 .27-.026.422-.076.152-.051.314-.127.486-.229.172-.1.318-.192.44-.274.12-.082.273-.189.456-.321a52.71 52.71 0 01.359-.258l.855-.594 3.1-2.152a4.017 4.017 0 001.03-1.04 2.23 2.23 0 00.414-1.275c0-.372-.134-.69-.401-.955a1.307 1.307 0 00-.951-.397z" fill="#D9D9D9"/></svg>