<svg width="17" height="17" fill="none" xmlns="http://www.w3.org/2000/svg"><g clip-path="url(#clip0_111_4)"><path fill-rule="evenodd" clip-rule="evenodd" d="M2.003.542a1.854 1.854 0 012.773.173l1.907 2.45c.35.45.473 1.035.335 1.588L6.437 7.08a.72.72 0 00.189.683l2.61 2.61a.72.72 0 00.685.19l2.325-.581a1.854 1.854 0 011.588.335l2.45 1.906c.88.685.961 1.987.173 2.774l-1.099 1.099c-.786.786-1.96 1.131-3.056.746a19.8 19.8 0 01-7.448-4.697A19.8 19.8 0 01.158 4.698C-.227 3.603.118 2.427.905 1.64L2.003.542z" fill="#0C9EC3"/></g><defs><clipPath id="clip0_111_4"><path fill="#fff" d="M0 0h17v17H0z"/></clipPath></defs></svg>