<svg width="18" height="18" fill="none" xmlns="http://www.w3.org/2000/svg"><path d="M13.024 11.333c-.56-.552-1.258-.552-1.814 0-.424.42-.849.841-1.266 1.27-.114.117-.21.142-.35.063-.274-.15-.566-.27-.83-.434-1.23-.774-2.26-1.769-3.172-2.888-.453-.556-.856-1.152-1.138-1.822-.057-.135-.046-.224.064-.335.425-.41.838-.83 1.255-1.251.581-.585.581-1.27-.003-1.857-.332-.336-.663-.664-.995-.999-.342-.342-.68-.688-1.027-1.026-.56-.546-1.258-.546-1.814.003-.428.42-.838.852-1.273 1.266-.403.381-.606.848-.649 1.394-.067.887.15 1.725.457 2.541.627 1.69 1.583 3.191 2.741 4.567a16.964 16.964 0 005.618 4.396c.984.477 2.004.845 3.113.905.762.043 1.426-.15 1.957-.745.363-.406.773-.777 1.158-1.166.57-.577.574-1.276.008-1.846-.678-.681-1.359-1.358-2.04-2.036zm-.68-2.841l1.315-.224a5.879 5.879 0 00-1.643-3.173 5.848 5.848 0 00-3.351-1.672l-.186 1.322a4.537 4.537 0 012.596 1.295 4.537 4.537 0 011.269 2.452zM14.4 2.774A9.7 9.7 0 008.84 0l-.186 1.323a8.41 8.41 0 014.805 2.396 8.403 8.403 0 012.357 4.545l1.315-.225a9.77 9.77 0 00-2.73-5.265z" fill="#D9D9D9"/></svg>