<svg width="31" height="18" fill="none" xmlns="http://www.w3.org/2000/svg"><path d="M30.836 16.256a2.204 2.204 0 00-.105-.205c-.538-.986-1.566-2.196-3.083-3.63l-.032-.034-.016-.016-.017-.016h-.016c-.688-.668-1.124-1.117-1.307-1.347-.334-.438-.409-.882-.226-1.331.129-.34.613-1.056 1.452-2.152.442-.58.791-1.045 1.05-1.396 1.86-2.519 2.668-4.128 2.42-4.83l-.096-.163c-.064-.099-.231-.189-.5-.271-.27-.082-.613-.096-1.033-.041l-4.649.033c-.075-.028-.182-.025-.322.008l-.21.05-.081.04-.064.05a.723.723 0 00-.178.172 1.136 1.136 0 00-.161.288 27.046 27.046 0 01-1.727 3.695c-.398.68-.764 1.268-1.098 1.766-.334.498-.613.865-.84 1.1-.225.236-.43.425-.613.567-.183.143-.322.203-.419.181a11.591 11.591 0 01-.275-.066 1.085 1.085 0 01-.363-.402 1.826 1.826 0 01-.185-.64A7.212 7.212 0 0118.085 7c-.005-.186-.003-.45.008-.789.012-.34.017-.569.017-.69 0-.416.008-.867.024-1.355.016-.487.029-.873.04-1.157.011-.285.016-.586.016-.904 0-.318-.019-.567-.056-.747a2.59 2.59 0 00-.17-.526.882.882 0 00-.33-.394 1.846 1.846 0 00-.541-.222c-.57-.132-1.297-.203-2.18-.214-2-.022-3.286.11-3.857.395-.226.12-.43.284-.613.492-.194.241-.22.373-.08.394.645.099 1.102.334 1.371.707l.097.197c.075.142.15.394.226.756.075.36.124.76.145 1.198.054.8.054 1.484 0 2.054a24.87 24.87 0 01-.153 1.33 2.7 2.7 0 01-.218.772 3.289 3.289 0 01-.194.362.28.28 0 01-.08.082 1.19 1.19 0 01-.436.082c-.151 0-.334-.077-.549-.23a3.897 3.897 0 01-.67-.633 8.453 8.453 0 01-.783-1.125 19.745 19.745 0 01-.903-1.708l-.259-.476a41.215 41.215 0 01-.661-1.34 26.036 26.036 0 01-.743-1.7 1.081 1.081 0 00-.387-.525l-.08-.05a1.099 1.099 0 00-.26-.139 1.69 1.69 0 00-.37-.107L1.033.823c-.452 0-.758.104-.92.312l-.064.099A.54.54 0 000 1.497c0 .12.032.268.097.443a54.638 54.638 0 002.106 4.468c.759 1.435 1.418 2.59 1.977 3.466a40.94 40.94 0 001.711 2.48c.581.778.966 1.276 1.154 1.495.188.22.336.383.444.493l.404.394c.258.263.637.577 1.137.944.501.367 1.055.729 1.663 1.085a8.927 8.927 0 002.123.87 7.22 7.22 0 002.356.271h1.856c.377-.033.662-.153.856-.361l.064-.083a1.1 1.1 0 00.12-.303 1.65 1.65 0 00.057-.452c-.01-.47.025-.895.105-1.273.08-.377.172-.662.275-.854.102-.191.218-.353.347-.484.129-.131.22-.211.275-.238a.948.948 0 01.128-.058c.258-.087.562-.003.912.255.35.257.678.575.985.953.307.378.675.802 1.106 1.273.43.47.807.82 1.13 1.051l.322.197c.215.132.495.252.84.361.343.11.645.137.903.083l4.132-.066c.409 0 .727-.069.952-.205.226-.137.36-.288.404-.452.043-.164.045-.35.008-.559a2.097 2.097 0 00-.113-.435z" fill="#fff" fill-opacity=".7"/></svg>