<svg width="17" height="17" fill="none" xmlns="http://www.w3.org/2000/svg"><path d="M0 17l1.19-4.223A8.447 8.447 0 01.023 8.48C.022 3.805 3.83 0 8.51 0 13.191 0 17 3.805 17 8.48c0 4.676-3.808 8.48-8.489 8.48a8.486 8.486 0 01-4.15-1.08L0 17zm4.584-2.664l.26.159a7.04 7.04 0 003.667 1.027c3.887 0 7.049-3.159 7.049-7.042 0-3.882-3.162-7.041-7.049-7.041-3.887 0-7.05 3.159-7.05 7.041a7.01 7.01 0 001.114 3.8l.175.272-.686 2.432 2.52-.648z" fill="#29D55D"/><path d="M6.126 4.534l-.55-.03a.667.667 0 00-.474.162c-.267.231-.694.68-.825 1.263-.196.87.106 1.936.888 3.001.783 1.066 2.24 2.77 4.818 3.499.831.234 1.484.076 1.989-.246.399-.255.674-.665.773-1.128l.088-.41a.285.285 0 00-.16-.319l-1.86-.857a.286.286 0 00-.346.085l-.731.946a.21.21 0 01-.235.07c-.5-.175-2.177-.877-3.097-2.647a.21.21 0 01.026-.235l.699-.808a.285.285 0 00.046-.298l-.802-1.875a.285.285 0 00-.247-.173z" fill="#29D55D"/></svg>