<svg width="298" height="88" fill="none" xmlns="http://www.w3.org/2000/svg"><circle cx="254" cy="44" r="44" fill="#FF2424"/><path d="M221.445 41v-2.1h1.625V28.8h-1.625v-2.1h6.675v2.1h-1.625v3.875h5.925V28.8h-1.625v-2.1h6.675v2.1h-1.625v10.1h1.625V41h-6.675v-2.1h1.625v-4.175h-5.925V38.9h1.625V41h-6.675zm23.088.275c-1.083 0-2.042-.217-2.875-.65a4.661 4.661 0 01-1.9-1.825c-.45-.8-.675-1.725-.675-2.775 0-1.067.225-1.983.675-2.75a4.661 4.661 0 011.9-1.825c.833-.433 1.792-.65 2.875-.65 1.1 0 2.058.217 2.875.65a4.629 4.629 0 011.925 1.825c.467.767.7 1.675.7 2.725s-.233 1.975-.7 2.775a4.795 4.795 0 01-1.925 1.85c-.817.433-1.775.65-2.875.65zm0-2.3c.533 0 .992-.117 1.375-.35.4-.25.708-.592.925-1.025.217-.45.325-.983.325-1.6 0-.6-.108-1.117-.325-1.55a2.34 2.34 0 00-.925-1c-.383-.233-.842-.35-1.375-.35-.517 0-.967.117-1.35.35-.383.233-.683.575-.9 1.025-.217.433-.325.95-.325 1.55 0 .6.108 1.125.325 1.575.217.433.517.775.9 1.025.383.233.833.35 1.35.35zm12.012 2.3c-1.084 0-2.042-.217-2.875-.65a4.661 4.661 0 01-1.9-1.825c-.45-.8-.675-1.725-.675-2.775 0-1.067.225-1.983.675-2.75a4.661 4.661 0 011.9-1.825c.833-.433 1.791-.65 2.875-.65 1.1 0 2.058.217 2.875.65a4.629 4.629 0 011.925 1.825c.466.767.7 1.675.7 2.725s-.234 1.975-.7 2.775a4.795 4.795 0 01-1.925 1.85c-.817.433-1.775.65-2.875.65zm0-2.3c.533 0 .991-.117 1.375-.35.4-.25.708-.592.925-1.025.216-.45.325-.983.325-1.6 0-.6-.109-1.117-.325-1.55a2.34 2.34 0 00-.925-1c-.384-.233-.842-.35-1.375-.35-.517 0-.967.117-1.35.35-.384.233-.684.575-.9 1.025-.217.433-.325.95-.325 1.55 0 .6.108 1.125.325 1.575.216.433.516.775.9 1.025.383.233.833.35 1.35.35zm13.937 2.275c-.817 0-1.542-.15-2.175-.45a5.356 5.356 0 01-1.675-1.3l.8.375-.05 1.125h-4.35v-1.875h1.475V28.3h-1.45v-1.85h4.5v6.175l-.625-.1c.45-.533 1-.95 1.65-1.25a4.889 4.889 0 012.125-.475c.916 0 1.716.208 2.4.625.683.417 1.216 1.008 1.6 1.775.4.75.6 1.65.6 2.7 0 1.1-.217 2.05-.65 2.85-.417.8-.992 1.417-1.725 1.85-.717.433-1.534.65-2.45.65zm-.975-2.25c.766 0 1.4-.258 1.9-.775.5-.533.75-1.258.75-2.175 0-.967-.242-1.7-.725-2.2-.484-.5-1.109-.75-1.875-.75-.45 0-.909.117-1.375.35-.45.217-.859.55-1.225 1l.6-1.175v5.7l-.625-1.2c.35.383.75.683 1.2.9.45.217.908.325 1.375.325zm10.506 2.275c-1.016 0-1.825-.275-2.425-.825-.6-.55-.9-1.25-.9-2.1 0-.767.184-1.375.55-1.825.367-.45.85-.775 1.45-.975.617-.2 1.267-.3 1.95-.3.584 0 1.134.05 1.65.15.517.1.975.225 1.375.375l-.625.1v-1c0-.683-.183-1.192-.55-1.525-.35-.333-.85-.5-1.5-.5a6.11 6.11 0 00-1.55.225 8.58 8.58 0 00-1.775.65l-.725-1.775a9.561 9.561 0 012.3-.85c.8-.2 1.575-.3 2.325-.3.95 0 1.75.158 2.4.475.667.317 1.175.767 1.525 1.35.35.567.525 1.25.525 2.05v4.45h1.325V41h-3.85l-.375-1.5h.825c-.583.6-1.183 1.05-1.8 1.35-.616.283-1.325.425-2.125.425zm.925-1.7c.45 0 .892-.1 1.325-.3.45-.2.9-.525 1.35-.975l-.575.925V36.6l.525.525a5.828 5.828 0 00-1.075-.325c-.383-.1-.8-.15-1.25-.15a2.55 2.55 0 00-1.275.325c-.366.217-.55.608-.55 1.175 0 .433.134.783.4 1.05.267.25.642.375 1.125.375zM222.69 64v-2.1h1.625V51.8h-1.625v-2.1h7.85c1.75 0 3.042.317 3.875.95.85.617 1.275 1.467 1.275 2.55 0 .817-.216 1.483-.65 2-.433.5-1.066.85-1.9 1.05.784.15 1.417.4 1.9.75.484.35.834.775 1.05 1.275.234.5.35 1.058.35 1.675 0 .8-.2 1.508-.6 2.125-.383.6-.991 1.075-1.825 1.425-.816.333-1.875.5-3.175.5h-8.15zm5.05-2.125h2.425c.967 0 1.659-.2 2.075-.6.434-.4.65-.942.65-1.625 0-.667-.225-1.192-.675-1.575-.433-.4-1.133-.6-2.1-.6h-2.375v4.4zm0-6.425h2.2c.8 0 1.375-.167 1.725-.5.367-.333.55-.792.55-1.375 0-.617-.2-1.067-.6-1.35-.4-.283-1.041-.425-1.925-.425h-1.95v3.65zm15.548 8.825c-1.083 0-2.042-.217-2.875-.65a4.661 4.661 0 01-1.9-1.825c-.45-.8-.675-1.725-.675-2.775 0-1.067.225-1.983.675-2.75a4.661 4.661 0 011.9-1.825c.833-.433 1.792-.65 2.875-.65 1.1 0 2.058.217 2.875.65a4.629 4.629 0 011.925 1.825c.467.767.7 1.675.7 2.725s-.233 1.975-.7 2.775a4.795 4.795 0 01-1.925 1.85c-.817.433-1.775.65-2.875.65zm0-2.3c.533 0 .992-.117 1.375-.35.4-.25.708-.592.925-1.025.217-.45.325-.983.325-1.6 0-.6-.108-1.117-.325-1.55a2.34 2.34 0 00-.925-1c-.383-.233-.842-.35-1.375-.35-.517 0-.967.117-1.35.35-.383.233-.683.575-.9 1.025-.217.433-.325.95-.325 1.55 0 .6.108 1.125.325 1.575.217.433.517.775.9 1.025.383.233.833.35 1.35.35zm12.012 2.3c-1.084 0-2.042-.217-2.875-.65a4.661 4.661 0 01-1.9-1.825c-.45-.8-.675-1.725-.675-2.775 0-1.067.225-1.983.675-2.75a4.661 4.661 0 011.9-1.825c.833-.433 1.791-.65 2.875-.65 1.1 0 2.058.217 2.875.65a4.629 4.629 0 011.925 1.825c.466.767.7 1.675.7 2.725s-.234 1.975-.7 2.775a4.795 4.795 0 01-1.925 1.85c-.817.433-1.775.65-2.875.65zm0-2.3c.533 0 .991-.117 1.375-.35.4-.25.708-.592.925-1.025.216-.45.325-.983.325-1.6 0-.6-.109-1.117-.325-1.55a2.34 2.34 0 00-.925-1c-.384-.233-.842-.35-1.375-.35-.517 0-.967.117-1.35.35-.384.233-.684.575-.9 1.025-.217.433-.325.95-.325 1.55 0 .6.108 1.125.325 1.575.216.433.516.775.9 1.025.383.233.833.35 1.35.35zm13.936 2.275c-.816 0-1.541-.15-2.175-.45a5.367 5.367 0 01-1.675-1.3l.8.375-.05 1.125h-4.35v-1.875h1.475V51.3h-1.45v-1.85h4.5v6.175l-.625-.1c.45-.533 1-.95 1.65-1.25a4.892 4.892 0 012.125-.475c.917 0 1.717.208 2.4.625.684.417 1.217 1.008 1.6 1.775.4.75.6 1.65.6 2.7 0 1.1-.216 2.05-.65 2.85-.416.8-.991 1.417-1.725 1.85-.716.433-1.533.65-2.45.65zm-.975-2.25c.767 0 1.4-.258 1.9-.775.5-.533.75-1.258.75-2.175 0-.967-.241-1.7-.725-2.2-.483-.5-1.108-.75-1.875-.75-.45 0-.908.117-1.375.35-.45.217-.858.55-1.225 1l.6-1.175v5.7l-.625-1.2c.35.383.75.683 1.2.9.45.217.909.325 1.375.325zm10.507 2.275c-1.016 0-1.825-.275-2.425-.825-.6-.55-.9-1.25-.9-2.1 0-.767.184-1.375.55-1.825.367-.45.85-.775 1.45-.975.617-.2 1.267-.3 1.95-.3.584 0 1.134.05 1.65.15.517.1.975.225 1.375.375l-.625.1v-1c0-.683-.183-1.192-.55-1.525-.35-.333-.85-.5-1.5-.5a6.11 6.11 0 00-1.55.225 8.58 8.58 0 00-1.775.65l-.725-1.775a9.561 9.561 0 012.3-.85c.8-.2 1.575-.3 2.325-.3.95 0 1.75.158 2.4.475.667.317 1.175.767 1.525 1.35.35.567.525 1.25.525 2.05v4.45h1.325V64h-3.85l-.375-1.5h.825c-.583.6-1.183 1.05-1.8 1.35-.616.283-1.325.425-2.125.425zm.925-1.7c.45 0 .892-.1 1.325-.3.45-.2.9-.525 1.35-.975l-.575.925V59.6l.525.525a5.828 5.828 0 00-1.075-.325c-.383-.1-.8-.15-1.25-.15a2.55 2.55 0 00-1.275.325c-.366.217-.55.608-.55 1.175 0 .433.134.783.4 1.05.267.25.642.375 1.125.375zM4.592 71v-8.484h6.565V21.712H4.592v-8.484h33.33c4.444 0 8.35.572 11.716 1.717 3.367 1.145 5.993 2.929 7.878 5.353 1.885 2.357 2.828 5.454 2.828 9.292 0 2.626-.471 4.983-1.414 7.07-.943 2.02-2.39 3.737-4.343 5.151-1.885 1.347-4.276 2.39-7.171 3.131l10.807 17.473h6.868V71H48.224l-14.14-24.543h-5.252v-8.686h7.777c2.424 0 4.31-.37 5.656-1.111 1.414-.808 2.424-1.852 3.03-3.131.606-1.28.909-2.66.909-4.141 0-1.481-.337-2.794-1.01-3.939-.606-1.145-1.582-2.054-2.929-2.727-1.28-.673-2.895-1.01-4.848-1.01H24.994v40.804h6.363V71H4.592zm68.057 0v-8.484h6.565V21.712h-6.565v-8.484h53.126v18.887h-8.989V21.712H93.152v15.453h12.12v-6.06h6.969v20.503h-6.868v-6.262H93.152v17.069h24.038v-11.11h9.09V71H72.649zm94.836 1.111c-4.646 0-8.921-.707-12.827-2.121-3.838-1.414-7.204-3.434-10.1-6.06-2.895-2.626-5.117-5.757-6.666-9.393-1.548-3.703-2.323-7.844-2.323-12.423 0-5.993 1.313-11.245 3.939-15.756 2.626-4.511 6.229-7.979 10.807-10.403 4.646-2.491 9.966-3.737 15.958-3.737 4.04 0 7.609.606 10.706 1.818 3.165 1.145 5.757 2.828 7.777 5.05 2.02 2.155 3.401 4.646 4.141 7.474l-3.333-1.818V13.228h9.393V32.62l-8.08.101c-1.885-3.703-4.275-6.43-7.171-8.181-2.828-1.818-6.329-2.727-10.504-2.727-4.04 0-7.507.875-10.403 2.626-2.828 1.683-5.05 4.04-6.666 7.07-1.548 3.03-2.323 6.498-2.323 10.403 0 3.097.438 5.892 1.313 8.383.943 2.491 2.222 4.646 3.838 6.464a18.158 18.158 0 005.858 4.242c2.29.943 4.781 1.414 7.474 1.414 2.828 0 5.387-.471 7.676-1.414a15.775 15.775 0 005.858-4.444c1.684-2.02 2.963-4.545 3.838-7.575l10.706 4.141c-1.212 4.107-3.164 7.575-5.858 10.403-2.626 2.76-5.891 4.882-9.797 6.363-3.905 1.414-8.315 2.155-13.231 2.222z" fill="#fff"/></svg>